# xmcd CD database file
#
# Track frame offsets:
#	150
#	22215
#	39924
#	59073
#	79716
#	97216
#	118087
#	135902
#	156250
#	175902
#
# Disc length: 2634 seconds
#
# Revision: 0
# Processed by: cddbd v1.5.2PL0 Copyright (c) Steve Scherf et al.
# Submitted via: CDex 1.51
#
DISCID=860a480a
DTITLE=Bad Boys - Salsa
DYEAR=1900
DGENRE=Salsa
TTITLE0=A esos hombres
TTITLE1=Así es la vida
TTITLE2=Volver a empezar
TTITLE3=Como el ternero
TTITLE4=Que te voy a olvidar
TTITLE5=Se equivocó su mamá
TTITLE6=Un beso robado
TTITLE7=Sin miedo a nada
TTITLE8=Tiempo
TTITLE9=Entre el delirio y la locura
EXTD=
EXTT0=
EXTT1=
EXTT2=
EXTT3=
EXTT4=
EXTT5=
EXTT6=
EXTT7=
EXTT8=
EXTT9=
PLAYORDER=
